<?xml version="1.0" standalone="no"?>
<!DOCTYPE svg PUBLIC "-//W3C//DTD SVG 20010904//EN"
 "http://www.w3.org/TR/2001/REC-SVG-20010904/DTD/svg10.dtd">
<svg version="1.0" xmlns="http://www.w3.org/2000/svg"
 width="16" height="16" viewBox="0 0 512.000000 512.000000"
 preserveAspectRatio="xMidYMid meet">

<g transform="translate(0.000000,512.000000) scale(0.100000,-0.100000)"
fill="#000000" stroke="none">
<path d="M2494 4890 c-126 -19 -261 -87 -376 -189 -134 -119 -290 -363 -392
-615 l-16 -39 -53 7 c-485 61 -831 -15 -1034 -226 -164 -172 -199 -424 -98
-718 49 -144 162 -343 279 -494 l46 -59 -20 -26 c-133 -172 -232 -339 -289
-486 -51 -129 -71 -230 -71 -352 0 -178 49 -304 164 -419 159 -158 391 -234
717 -234 120 0 279 12 335 25 18 4 26 -7 58 -83 177 -412 422 -680 682 -746
76 -20 211 -20 281 -2 264 70 504 325 674 718 37 86 53 113 67 111 9 -1 61 -6
115 -12 208 -23 464 -8 615 35 249 72 422 235 477 449 17 69 20 230 4 307 -41
203 -159 440 -333 669 l-35 45 41 55 c137 180 255 400 304 564 35 120 44 299
20 395 -62 246 -258 412 -560 476 -160 34 -384 36 -613 8 l-53 -7 -22 54
c-128 311 -314 566 -502 688 -125 81 -285 121 -412 101z m171 -195 c32 -9 81
-28 109 -43 74 -39 224 -191 291 -295 57 -88 181 -335 172 -343 -2 -3 -62 -20
-133 -39 -138 -36 -316 -95 -451 -150 l-83 -33 -82 33 c-134 54 -281 103 -436
145 -80 22 -147 42 -150 45 -8 8 117 255 174 343 67 103 217 255 290 294 103
55 198 69 299 43z m-1072 -821 c57 -8 57 10 2 -199 -29 -111 -95 -455 -95
-494 0 -5 -25 -28 -56 -51 -100 -75 -216 -178 -345 -306 l-126 -124 -55 77
c-153 212 -235 392 -259 570 -33 234 82 409 319 487 68 22 116 32 237 50 38 6
315 -2 378 -10z m2432 -4 c376 -70 528 -292 433 -633 -38 -139 -120 -299 -236
-460 l-56 -78 -130 129 c-113 112 -247 231 -364 322 -29 23 -33 33 -47 125
-24 154 -64 347 -96 462 -16 57 -29 110 -29 117 0 11 21 16 78 21 42 4 82 8
87 11 19 8 300 -5 360 -16z m-1970 -96 c83 -23 178 -53 212 -66 l62 -23 -102
-54 c-151 -80 -300 -166 -410 -238 -54 -34 -99 -63 -101 -63 -10 0 61 318 100
448 l16 53 36 -7 c21 -4 105 -26 187 -50z m1273 -16 c44 -151 106 -428 96
-428 -2 0 -47 29 -101 63 -124 81 -279 170 -412 237 l-104 53 49 18 c97 38
393 123 440 128 6 1 21 -32 32 -71z m-605 -242 c201 -99 390 -207 562 -322
193 -129 176 -111 186 -201 26 -242 18 -889 -12 -945 -13 -24 -171 -133 -357
-245 -163 -98 -502 -273 -531 -273 -24 0 -316 145 -461 230 -171 99 -408 257
-425 283 -23 36 -39 358 -31 637 8 299 17 386 42 406 51 39 282 190 384 250
92 54 476 254 488 254 2 0 71 -34 155 -74z m-1258 -955 c0 -308 -2 -348 -15
-341 -28 16 -275 247 -314 294 l-39 48 59 60 c33 33 115 111 184 174 69 62
125 114 125 114 0 0 0 -157 0 -349z m2454 122 l125 -121 -53 -61 c-47 -54
-291 -282 -310 -289 -4 -1 -7 155 -7 347 l0 349 60 -51 c33 -29 117 -107 185
-174z m-2541 -647 c67 -54 122 -102 122 -106 0 -5 11 -74 25 -154 30 -176 67
-344 99 -448 21 -70 22 -78 7 -82 -9 -3 -76 -10 -150 -16 -125 -9 -312 -1
-390 16 -355 80 -497 290 -416 610 36 141 122 312 237 472 l60 83 142 -138
c78 -76 196 -182 264 -237z m2889 235 c121 -182 194 -354 214 -509 49 -367
-270 -573 -822 -532 -74 6 -141 13 -150 15 -14 5 -13 17 12 103 31 106 81 334
98 452 7 41 14 89 17 106 4 26 26 49 126 130 67 55 185 161 263 236 l140 137
23 -27 c12 -15 48 -65 79 -111z m-2438 -559 c112 -73 338 -201 434 -248 31
-16 57 -31 57 -35 0 -14 -476 -158 -485 -147 -21 27 -132 498 -117 498 3 0 53
-31 111 -68z m1596 56 c-2 -7 -13 -62 -25 -121 -19 -95 -86 -356 -93 -364 -12
-11 -487 131 -487 146 0 4 30 22 68 40 95 47 330 183 437 252 94 61 107 67
100 47z m-741 -492 c138 -54 333 -118 451 -147 50 -12 94 -25 98 -29 5 -4 -16
-60 -47 -124 -154 -324 -355 -530 -553 -566 -187 -33 -389 90 -552 336 -66
100 -186 343 -175 353 5 5 43 16 84 26 88 21 428 132 515 169 33 14 62 25 64
26 2 0 54 -20 115 -44z"/>
<path d="M2313 3142 c-138 -87 -254 -159 -257 -162 -9 -9 523 -333 536 -327
37 16 513 317 512 324 -1 12 -506 323 -524 322 -8 -1 -128 -71 -267 -157z"/>
<path d="M1930 2502 l1 -327 273 -167 c150 -93 276 -168 279 -168 4 0 7 145 7
323 l0 322 -183 112 c-100 62 -226 139 -279 172 l-98 61 0 -328z"/>
<path d="M2958 2658 l-278 -171 0 -324 c0 -177 2 -323 5 -323 5 0 537 329 548
339 4 4 6 152 5 329 l-3 321 -277 -171z"/>
</g>
</svg>
